<?xml version="1.0" standalone="no"?>
<!DOCTYPE svg PUBLIC "-//W3C//DTD SVG 20010904//EN"
 "http://www.w3.org/TR/2001/REC-SVG-20010904/DTD/svg10.dtd">
<svg version="1.0" xmlns="http://www.w3.org/2000/svg"
 width="225.000000pt" height="225.000000pt" viewBox="0 0 225.000000 225.000000"
 preserveAspectRatio="xMidYMid meet">
<metadata>
Created by potrace 1.11, written by Peter Selinger 2001-2013
</metadata>
<g transform="translate(0.000000,225.000000) scale(0.100000,-0.100000)"
fill="#000000" stroke="none">
<path d="M1130 2103 c0 -38 7 -118 15 -178 11 -73 12 -111 5 -120 -21 -25 42
-240 81 -275 8 -7 39 -94 39 -109 0 -7 25 -37 55 -66 30 -30 55 -50 55 -45 0
5 -7 15 -15 24 -21 20 -19 26 9 26 14 0 28 5 31 10 10 17 25 11 19 -7 -5 -17
-5 -17 6 0 8 12 24 17 60 17 27 0 52 5 55 11 5 7 -19 10 -79 7 -70 -2 -87 0
-90 12 -16 56 -239 756 -242 759 -2 2 -4 -27 -4 -66z m215 -722 c10 -25 -1
-22 -36 9 l-34 30 32 -12 c18 -7 35 -19 38 -27z"/>
<path d="M123 1393 c9 -2 23 -2 30 0 6 3 -1 5 -18 5 -16 0 -22 -2 -12 -5z"/>
<path d="M2053 1373 c-17 -16 -57 -41 -89 -57 -104 -53 -375 -253 -437 -323
-75 -85 -78 -91 -62 -163 8 -36 34 -123 59 -195 44 -130 86 -266 86 -279 0 -4
-12 6 -26 23 -14 17 -34 31 -45 31 -10 0 -78 45 -151 100 -73 55 -158 113
-188 129 -30 15 -54 34 -52 40 1 6 -4 14 -11 17 -15 5 -100 -30 -91 -38 3 -3
-3 -5 -13 -5 -10 1 -17 -4 -15 -11 1 -7 -5 -12 -15 -10 -10 2 -17 -2 -16 -9 1
-6 -4 -14 -13 -17 -10 -4 -13 -2 -8 6 10 17 -109 -68 -164 -117 -38 -33 -237
-252 -294 -323 -31 -39 -51 -73 -45 -78 6 -6 79 46 472 336 105 77 193 140
198 140 4 0 67 -44 140 -98 217 -162 511 -378 524 -385 6 -4 -8 52 -32 125
-93 283 -215 662 -215 670 0 4 145 116 323 249 177 133 329 248 337 255 12 12
4 14 -56 14 -63 0 -74 -3 -101 -27z"/>
<path d="M85 1361 c6 -6 149 -114 320 -240 254 -189 316 -231 343 -231 22 0
32 5 32 15 0 17 -67 95 -82 95 -13 0 -105 77 -148 124 -60 65 -142 120 -241
160 -52 21 -103 42 -114 46 -49 20 -118 39 -110 31z"/>
<path d="M1357 562 c12 -9 50 -39 85 -66 63 -48 63 -48 19 -6 -55 52 -105 90
-117 90 -5 0 1 -8 13 -18z"/>
</g>
</svg>
